<?xml version="1.0" encoding="UTF-8"?>
<svg width="43px" height="48px" viewBox="0 0 43 48" version="1.1" xmlns="http://www.w3.org/2000/svg" xmlns:xlink="http://www.w3.org/1999/xlink">
    <title>reshot-icon-delivery-parcel-QJSC3YFLEW</title>
    <g id="Page-1" stroke="none" stroke-width="1" fill="none" fill-rule="evenodd">
        <g id="Artboard-Copy" transform="translate(-703.000000, -2657.000000)" fill="#FFFFFF" fill-rule="nonzero">
            <g id="reshot-icon-delivery-parcel-QJSC3YFLEW" transform="translate(703.000000, 2657.000000)">
                <path d="M9.975,46.545 L1.455,46.545 L1.455,34.734 C1.455,34.334 1.129,34.007 0.728,34.007 C0.327,34.007 0,34.333 0,34.734 L0,47.273 C0,47.673 0.326,48 0.728,48 L9.975,48 C10.376,48 10.703,47.674 10.703,47.273 C10.702,46.871 10.376,46.545 9.975,46.545 Z" id="Path"></path>
                <path d="M39.241,19.756 C38.136,19.231 36.891,18.764 35.544,18.363 C34.998,18.201 34.447,18.049 33.892,17.916 C32.314,17.486 31.158,16.359 30.876,14.978 C30.862,14.91 30.851,14.8 30.84,14.689 C32.644,13.091 33.819,10.55 33.819,7.685 C33.819,6.968 33.746,6.279 33.601,5.634 C33.597,5.616 33.585,5.605 33.58,5.589 C33.568,5.55 33.549,5.515 33.531,5.478 C33.507,5.429 33.484,5.382 33.451,5.339 C33.428,5.31 33.397,5.288 33.368,5.261 C33.327,5.226 33.287,5.189 33.238,5.163 C33.225,5.155 33.218,5.143 33.206,5.138 C31.84,4.474 30.115,4.46 27.936,5.089 C23.563,6.349 21.758,5.103 21.184,4.507 C22.141,2.607 24.011,1.454 26.421,1.454 C28.283,1.454 29.898,2.155 30.971,3.433 C31.23,3.74 31.689,3.779 31.995,3.523 C32.303,3.263 32.343,2.806 32.084,2.498 C30.734,0.887 28.722,0 26.422,0 C23.292,0 20.849,1.637 19.717,4.233 C19.679,4.295 19.647,4.36 19.63,4.43 C19.24,5.401 19.024,6.492 19.024,7.686 C19.024,10.545 20.195,13.084 21.994,14.682 C21.978,14.828 21.962,14.979 21.942,15.077 C21.654,16.434 20.477,17.552 18.944,17.919 C18.379,18.054 17.837,18.204 17.288,18.368 C15.942,18.767 14.701,19.235 13.597,19.759 C11.565,20.72 10.302,22.62 10.302,24.718 L10.302,26.04 L6.016,26.04 C5.828,26.04 5.648,26.112 5.513,26.243 L0.226,31.302 C0.011,31.507 -0.057,31.822 0.053,32.097 C0.164,32.374 0.431,32.554 0.729,32.554 L11.189,32.554 L11.189,39.708 C11.189,39.95 11.308,40.175 11.508,40.312 C11.707,40.447 11.961,40.472 12.186,40.384 L16.765,38.552 L21.343,40.384 C21.431,40.419 21.523,40.437 21.613,40.437 C21.902,40.437 22.175,40.263 22.289,39.98 C22.438,39.607 22.257,39.183 21.884,39.033 L17.035,37.094 C16.863,37.026 16.668,37.026 16.495,37.094 L12.644,38.635 L12.644,32.555 L20.886,32.555 L20.886,35.83 C20.886,36.232 21.211,36.556 21.613,36.556 C22.015,36.556 22.341,36.232 22.341,35.83 L22.341,31.828 C22.341,31.777 22.342,31.734 22.332,31.687 C22.326,31.66 22.315,31.634 22.307,31.607 L21.008,27.496 L27.223,27.496 L30.989,31.099 L25.493,31.099 C25.092,31.099 24.766,31.425 24.766,31.828 C24.766,32.228 25.091,32.555 25.493,32.555 L32.075,32.555 L32.075,46.547 L13.854,46.547 C13.453,46.547 13.126,46.873 13.126,47.276 C13.126,47.676 13.452,48.003 13.854,48.003 L32.799,48.003 C33.201,48.003 33.527,47.677 33.527,47.276 L33.527,31.826 C33.527,31.81 33.519,31.797 33.518,31.781 C33.514,31.715 33.501,31.65 33.479,31.586 C33.47,31.563 33.463,31.539 33.453,31.518 C33.423,31.452 33.382,31.393 33.332,31.338 C33.323,31.328 33.318,31.317 33.31,31.309 C33.307,31.305 33.306,31.303 33.303,31.301 L28.017,26.242 C27.881,26.111 27.701,26.039 27.514,26.039 L20.015,26.039 L13.515,26.039 L11.757,26.039 L11.757,24.717 C11.757,23.188 12.7,21.791 14.22,21.072 C15.256,20.58 16.428,20.138 17.703,19.761 C18.225,19.605 18.742,19.46 19.283,19.333 C21.273,18.854 22.815,17.403 23.297,15.608 C24.248,16.135 25.305,16.438 26.423,16.438 C27.541,16.438 28.598,16.135 29.549,15.606 C29.912,16.889 30.799,17.979 32.032,18.692 C31.701,20.491 29.223,21.991 26.423,21.991 C24.625,21.991 22.904,21.393 21.819,20.391 C21.523,20.12 21.063,20.137 20.791,20.434 C20.52,20.729 20.538,21.188 20.832,21.461 C22.2,22.721 24.237,23.443 26.423,23.443 C29.81,23.443 32.733,21.617 33.388,19.273 C33.445,19.291 33.497,19.314 33.554,19.33 C34.086,19.455 34.612,19.601 35.13,19.756 C36.407,20.135 37.582,20.576 38.62,21.068 C40.142,21.787 41.088,23.185 41.088,24.716 L41.088,33.847 C41.088,34.247 41.414,34.574 41.816,34.574 C42.217,34.574 42.544,34.248 42.544,33.847 L42.544,24.716 C42.542,22.619 41.277,20.717 39.241,19.756 Z M14.047,27.494 L19.481,27.494 L20.62,31.097 L12.908,31.097 L14.047,27.494 Z M12.522,27.494 L11.382,31.097 L2.54,31.097 L6.306,27.494 L12.522,27.494 Z M26.422,14.984 C23.144,14.984 20.479,11.711 20.479,7.685 C20.479,7.076 20.548,6.505 20.67,5.968 C21.414,6.517 22.642,7.081 24.562,7.081 C25.607,7.081 26.856,6.913 28.34,6.485 C29.982,6.012 31.254,5.977 32.244,6.338 C32.316,6.768 32.363,7.215 32.363,7.684 C32.363,11.711 29.698,14.984 26.422,14.984 Z" id="Shape"></path>
            </g>
        </g>
    </g>
</svg>