<?xml version="1.0" encoding="UTF-8"?>
<svg width="48px" height="57px" viewBox="0 0 48 57" version="1.1" xmlns="http://www.w3.org/2000/svg" xmlns:xlink="http://www.w3.org/1999/xlink">
    <title>Group</title>
    <g id="Page-1" stroke="none" stroke-width="1" fill="none" fill-rule="evenodd">
        <g id="Artboard-Copy" transform="translate(-1402.000000, -2653.000000)" fill="#FFFFFF" fill-rule="nonzero">
            <g id="Group" transform="translate(1402.000000, 2653.000000)">
                <path d="M41.2647985,23.4336277 C44.7000191,26.5683464 46.5918716,30.7308558 46.5918716,35.1543949 C46.5918716,37.4649904 46.0780734,39.7031851 45.0646683,41.8067831 C44.8771747,42.1961792 45.0012306,42.6855828 45.3419144,42.8999924 C45.4495235,42.9677741 45.5660609,43 45.6808126,43 C45.9292063,43 46.1699875,42.8495051 46.2982726,42.583212 C47.4274632,40.2391015 48,37.7397697 48,35.1545023 C48,30.2313547 45.9200901,25.6221946 42.1434338,22.1758517 C41.8396848,21.8986017 41.3965609,21.9553192 41.1539,22.3027142 C40.9112392,22.6498944 40.9609555,23.1562703 41.2647985,23.4336277 Z" id="Path"></path>
                <path d="M4.17161835,42.2297607 L4.24406796,42.2512776 C5.11814102,42.5070053 5.88517139,43.0479388 6.40352337,43.7740248 C7.3684304,45.1254979 8.5511214,46.3758419 9.9223337,47.4947179 C9.99119347,48.2442573 10.0336189,50.4509174 8.57342196,52.8949084 C8.06061793,53.7531079 8.10674201,54.6784399 8.69993683,55.4332508 C9.80952552,56.8454015 12.5903506,57.3993527 15.0297052,56.6945684 C17.3216585,56.0326026 18.8657273,54.3900065 19.3735273,52.1206247 C21.539401,52.6585459 23.790343,52.9309492 26.0787065,52.9309492 C27.5152975,52.9309492 28.946123,52.8222891 30.3501879,52.6072282 C30.2966665,52.7039464 30.2414047,52.799804 30.1847286,52.8949084 C29.6719246,53.7531079 29.7180487,54.6784399 30.3112435,55.4332508 C31.0949177,56.4306642 32.7123064,57 34.4543606,57 C35.1786392,57 35.9245656,56.9015604 36.6410118,56.6946759 C39.2374494,55.9447063 40.8740927,53.9361086 41.1319089,51.1816295 C41.2237219,50.1710909 41.2887743,49.1694816 41.3261957,48.1982112 C42.6370333,47.2404964 43.8072143,46.1600279 44.8087812,44.9819806 C45.0984709,44.6412613 45.0539786,44.1329258 44.7094622,43.846429 C44.3649457,43.5599322 43.8510539,43.6039341 43.5613642,43.9446534 C42.5656715,45.1157078 41.3854825,46.1840192 40.053541,47.1197869 C39.8455475,47.2658862 39.7187063,47.4999895 39.7109827,47.7523821 C39.6781301,48.8149916 39.6101406,49.9204196 39.5089723,51.0355302 C39.2584445,53.7127638 37.5627319,54.7493379 36.1843399,55.1475071 C34.303152,55.6909151 32.2114685,55.2244298 31.5984751,54.4443366 C31.4668475,54.2769355 31.3745993,54.0727406 31.5882495,53.7151306 C31.9520206,53.1062039 32.2595507,52.4662929 32.5025724,51.8126111 C32.6050461,51.5368727 32.5478262,51.2276756 32.3529955,51.0058369 C32.1581647,50.7841058 31.8570528,50.684698 31.5661665,50.7465589 C29.7825571,51.1264388 27.9366149,51.3191222 26.0792505,51.3191222 C23.6284736,51.3191222 21.2247999,50.9877628 18.935131,50.3342961 C18.6607798,50.2558672 18.3642368,50.3261197 18.1545027,50.5186955 C18.003838,50.657264 17.9137655,50.8451061 17.8972305,51.0426307 C17.6443095,53.7143775 15.9504462,54.7496606 14.5733596,55.1473995 C12.6920629,55.6908075 10.6004882,55.2243222 9.98749484,54.444229 C9.85586716,54.2768279 9.76361901,54.072633 9.97726922,53.7150231 C11.9226393,50.4589863 11.5851938,47.5271008 11.5045854,47.0052096 C11.4855484,46.7879971 11.3777442,46.5843401 11.2012978,46.4450186 C9.8387882,45.368208 8.67274102,44.1568095 7.7356825,42.844497 C7.00672624,41.8235227 5.93118669,41.063978 4.70650537,40.7055073 L4.64243206,40.6865725 C3.19659448,40.2559128 2.13737241,39.0671071 1.87825082,37.5836281 C1.71377061,36.6424812 1.63044268,35.6761596 1.63044268,34.711667 C1.63044268,33.661107 1.72921783,32.6104394 1.92415733,31.5886043 C2.07253762,30.8105552 2.77103458,30.2518702 3.5799465,30.2582177 L3.63020434,30.2585405 C4.88066728,30.2668244 6.00929303,29.5776399 6.58519132,28.4613459 C7.60764466,26.4797519 9.08905435,24.6920247 10.9883003,23.1474379 C11.2442672,22.9391548 11.341193,22.6056437 11.254384,22.3045154 C10.1790621,18.0626843 10.5665478,16.1069105 11.2262092,15.7210059 C11.5559311,15.5283225 12.9657614,15.2072912 17.2770574,19.1719853 C17.4944063,19.3718768 17.8044384,19.439117 18.0865132,19.3474552 C20.624643,18.5224993 23.3138726,18.1043194 26.0792505,18.1043194 C30.513689,18.1043194 34.7555813,19.1825286 38.3466237,21.2225408 C38.7367203,21.4442719 39.2350561,21.3110826 39.4592583,20.9250704 C39.6834605,20.5390582 39.5486781,20.04643 39.158364,19.8246989 C35.3208189,17.644612 30.7980483,16.4922773 26.0792505,16.4922773 C23.3060402,16.4922773 20.6027776,16.8888327 18.0356027,17.6718308 C14.4506522,14.4462403 12.0171719,13.3855674 10.3966285,14.3334921 C8.80969908,15.2615136 8.52849449,17.9176608 9.55867145,22.2308202 C7.67302337,23.8412486 6.18573939,25.6885774 5.1331531,27.7284821 C4.83900331,28.2985709 4.26745635,28.6515548 3.63760159,28.6463907 L3.59213021,28.6461756 C1.99007995,28.630791 0.616800773,29.7437499 0.321998287,31.2897353 C0.108348072,32.4097948 0,33.5610536 0,34.7115594 C0,35.7677138 0.0913778923,36.8263427 0.271631663,37.8579679 C0.63638175,39.9469309 2.1309542,41.6220174 4.17161835,42.2297607 Z" id="Path"></path>
                <path d="M24.5023385,19 C23.1444608,19 21.8076845,19.2058404 20.5289371,19.6117955 C20.1169315,19.7425333 19.9003252,20.1505878 20.0447645,20.5230473 C20.1870938,20.8899719 20.6475272,21.089514 21.0523584,20.9608757 C22.1625052,20.6084563 23.3232955,20.4298131 24.5023385,20.4298131 C25.6814871,20.4298131 26.8413278,20.6066431 27.9495755,20.9554362 C28.3623197,21.0853151 28.812519,20.8880633 28.9559033,20.5151267 C29.0992876,20.14219 28.8815207,19.7347081 28.4691985,19.6049246 C27.1934054,19.2035501 25.8587392,19 24.5023385,19 Z" id="Path"></path>
                <ellipse id="Oval" transform="translate(11.189593, 27.787406) rotate(-154.234409) translate(-11.189593, -27.787406) " cx="11.1895926" cy="27.7874062" rx="1.23586813" ry="2.98996179"></ellipse>
                <path d="M19.9269663,3.37854354 C19.5266971,3.16570034 19.0299208,3.31774684 18.8169697,3.7179096 C18.2825107,4.72297207 18,5.85784371 18,6.99994523 C18,10.8597138 21.1400426,14 25,14 C28.8599574,14 32,10.8598233 32,6.99994523 C32,3.14006713 28.8598479,0 25,0 C23.7185691,0 22.4647429,0.349663153 21.3742449,1.01130646 C20.9866827,1.24638702 20.8631185,1.7511639 21.0983068,2.13861959 C21.333495,2.52607529 21.8383775,2.64964046 22.2256111,2.41455991 C23.05956,1.90868759 24.0189352,1.64140122 25,1.64140122 C27.9546963,1.64140122 30.3586116,4.0453354 30.3586116,7.00005477 C30.3586116,9.95477414 27.9546963,12.3587083 25,12.3587083 C22.0453037,12.3587083 19.6413884,9.95477414 19.6413884,7.00005477 C19.6413884,6.12578734 19.8575162,5.25732573 20.2662201,4.48854878 C20.4789521,4.08827649 20.3271259,3.59138674 19.9269663,3.37854354 Z" id="Path"></path>
                <path d="M28,7.5 C28,5.57021396 26.4299923,4 24.5,4 C22.5700077,4 21,5.57000766 21,7.5 C21,9.42999234 22.5700077,11 24.5,11 C26.4299923,11 28,9.42978604 28,7.5 Z M22.545768,7.5 C22.545768,6.42241837 23.4226247,5.54556171 24.5002063,5.54556171 C25.5777879,5.54556171 26.4546446,6.42231522 26.4546446,7.5 C26.4546446,8.57758163 25.5777879,9.45443829 24.5002063,9.45443829 C23.4226247,9.45443829 22.545768,8.57758163 22.545768,7.5 Z" id="Shape"></path>
            </g>
        </g>
    </g>
</svg>